<svg class="cw cq cB" xmlns="http://www.w3.org/2000/svg" width="682" height="902" viewBox="0 0 682 902"
                    fill="none">
                    <path fill="#000"
                        d="M123.72 17H49.03v5.4h74.7V17zM85.6 30.08H49.03v5.41H85.6v-5.4zm0 13.01H49.03v5.4H85.6v-5.4zm0 13H49.03v5.41H85.6v-5.4zm0 13.01H49.03v5.4H85.6v-5.4zm70.38-32.51H123.7v5.4h32.27v-5.4zm0 13H123.7V55h32.27v-5.4zm0 13H123.7V68h32.27v-5.4zm0 13.01H123.7V81h32.27v-5.4z">
                    </path>
                    <path fill="#000"
                        d="M137.48 37.66h-32.25v3.23h32.25v-3.23zm0 13h-32.25v3.24h32.25v-3.24zm0 13h-32.25v3.25h32.25v-3.24zm0 13.01h-32.25v3.24h32.25v-3.24zM156 101.82h-15.22v3.24H156v-3.24zM49 85.6h18.49v-3.23H49v3.23zm107 2.98H85.6v5.4H156v-5.4z">
                    </path>
                    <path fill="#000" d="M554 773h8v8h-8zm0 104h8v8h-8zm104 0h8v8h-8zm0-104h8v8h-8z" opacity="0.2">
                    </path>
                    <path stroke="#000"
                        d="M32 721v-81m0 143v-50m0 135v-74m0-337v83m0 86v-86m-1-262v167m0-325v144m0-234v72"></path>
                    <path fill="#000"
                        d="M58.5 120l1.32 17.18L77 138.5l-17.18 1.32L58.5 157l-1.32-17.18L40 138.5l17.18-1.32L58.5 120z"
                        style="mix-blend-mode:difference"></path>
                    <path stroke="#000"
                        d="M66 83.5h19m44 20h19m-62-25h38m-38-6h38m-38-7h38m-38-6h38m-38-7h38m-38-6h38m-38-7h38m-38-7h38">
                    </path>
                    <path fill="#000" fill-opacity="0.1" d="M554 773h112v112H554z"></path>
                    <path fill="#fff"
                        d="M616.46 746.33h-.3v-.36h.3c.6 0 1.03-.15 1.27-.46.25-.3.38-.7.38-1.19 0-.5-.1-.9-.32-1.16a1.1 1.1 0 00-.9-.4c-.5 0-.86.19-1.06.55-.19.36-.25.88-.18 1.55l-.95-.17a2.1 2.1 0 01.1-1.11c.14-.35.38-.63.72-.84.35-.22.81-.33 1.38-.33.54 0 .98.1 1.3.28.34.17.59.4.74.7.16.28.23.6.23.93 0 .52-.15.92-.47 1.22-.3.3-.75.5-1.34.61.62.1 1.1.3 1.43.64.34.33.5.77.5 1.34 0 .36-.08.69-.26.99-.17.3-.43.54-.79.73-.35.17-.81.26-1.38.26-.53 0-1-.13-1.4-.37-.4-.25-.68-.7-.85-1.35l.7-.2c.05.4.15.72.3.95.15.23.33.4.54.49.21.08.44.13.67.13.94 0 1.4-.55 1.4-1.63 0-.53-.12-.96-.39-1.3-.26-.34-.72-.5-1.37-.5zm8.83 1.57c0 .45-.1.84-.3 1.18-.19.33-.47.58-.82.77-.35.17-.76.26-1.23.26-.8 0-1.42-.3-1.86-.88a4.32 4.32 0 01-.65-2.58v-.7c0-1.2.23-2.1.67-2.67a2.16 2.16 0 011.8-.87c.5 0 .92.1 1.26.3.35.2.61.45.78.78.18.32.24.67.2 1.05l-.95.17c.06-.63-.02-1.11-.24-1.44-.22-.34-.57-.5-1.05-.5-.27 0-.5.06-.73.2-.21.13-.38.38-.5.75s-.2.9-.2 1.58v1.07c.22-.27.47-.47.74-.58.3-.13.6-.19.92-.19.65 0 1.17.2 1.57.6.4.39.6.92.6 1.59v.1zm-3.81-.6c0 .62.05 1.1.16 1.47.12.36.29.61.5.77.24.15.5.22.82.22.4 0 .71-.14.95-.4.24-.29.36-.76.36-1.44v-.1c0-.57-.1-1.01-.32-1.33-.21-.32-.54-.48-.99-.48-.26 0-.53.07-.8.2-.26.14-.5.38-.68.71v.37zm5.62 2.81a.61.61 0 01-.45-.18.63.63 0 01-.16-.45.6.6 0 01.16-.44.61.61 0 01.45-.17c.2 0 .35.06.46.17.12.11.18.26.18.44a.6.6 0 01-.18.45.63.63 0 01-.46.18zm6.18-2.29h.29V750h-4.41v-.58c0-.5.08-.93.25-1.27.17-.33.39-.62.65-.86a7 7 0 01.87-.66l.77-.53a2.32 2.32 0 00.61-.68c.17-.27.26-.6.26-1 0-.56-.11-.98-.33-1.25-.21-.27-.52-.4-.9-.4-.51 0-.86.18-1.06.54-.19.36-.25.88-.18 1.55l-.95-.17a2.02 2.02 0 01.08-1.11c.14-.35.39-.63.74-.84.35-.22.81-.33 1.38-.33.54 0 .98.1 1.32.29.33.19.58.44.73.74.16.31.23.64.23 1 0 .4-.07.73-.23 1a2.04 2.04 0 01-.6.68 5.42 5.42 0 01-.82.47c-.29.13-.57.27-.85.42a4.01 4.01 0 00-.75.5 2.46 2.46 0 00-.55.69 2.5 2.5 0 00-.25.97h2.83c.26 0 .41-.01.47-.04.05-.04.1-.12.13-.24l.27-1.07zm6.48-1.91v.7c0 .7-.1 1.31-.3 1.84-.2.53-.49.94-.87 1.23-.38.29-.84.43-1.39.43-.55 0-1.01-.14-1.4-.43-.37-.3-.65-.7-.85-1.23-.2-.53-.3-1.15-.3-1.85v-.7c0-.7.1-1.3.3-1.83.2-.53.48-.93.86-1.22.38-.3.84-.44 1.4-.44.54 0 1 .15 1.38.44.38.29.67.7.87 1.22.2.52.3 1.13.3 1.84zm-1.07-.77c0-.85-.13-1.46-.39-1.83a1.26 1.26 0 00-1.1-.55c-.47 0-.84.19-1.1.55-.25.37-.38.98-.38 1.83v2.23c0 .86.13 1.47.38 1.84.26.36.63.55 1.1.55.48 0 .85-.19 1.1-.55.26-.37.39-.98.39-1.84v-2.23zm4.93 3.97v-1.05h-3.18v-.35a8.5 8.5 0 002.19-3.63c.15-.47.3-.99.42-1.56h1.16a9.38 9.38 0 01-1.28 2.78 17.25 17.25 0 01-2.03 2.41h2.72V746l.96-.16v1.88h.84v.35h-.84v1.05c0 .26 0 .4.03.45.02.04.1.07.21.09l.6.06v.29h-2.87v-.29l.83-.06c.12 0 .19-.03.2-.08.03-.05.04-.2.04-.46zm7.52-1c0 .58-.2 1.06-.59 1.44-.38.37-.97.56-1.74.56-.55 0-1-.08-1.36-.25-.36-.18-.62-.4-.8-.68a1.64 1.64 0 01-.26-.9c0-.4.13-.77.4-1.1a3 3 0 011.18-.86 3.16 3.16 0 01-1.04-.77c-.26-.31-.39-.7-.39-1.17 0-.36.08-.69.25-.98.17-.3.42-.54.74-.71.33-.19.73-.28 1.2-.28s.87.08 1.2.24c.34.16.6.38.77.66.18.27.27.57.27.9 0 .37-.12.7-.36.97s-.62.53-1.13.74c.54.23.95.51 1.23.86.28.33.43.78.43 1.33zm-2.47-2.53l.47.2c.35-.2.6-.42.72-.67.13-.26.2-.56.2-.9 0-.48-.12-.84-.36-1.08s-.57-.37-.98-.37c-.4 0-.72.12-.98.34-.26.22-.39.55-.39.98 0 .37.12.67.34.9.23.21.56.41.98.6zm-1.37 2.68c0 .47.13.84.38 1.1.26.27.63.4 1.13.4.48 0 .85-.12 1.12-.35.26-.25.4-.6.4-1.04 0-.39-.11-.7-.33-.94-.2-.25-.55-.48-1.03-.69l-.65-.27a1.74 1.74 0 00-.77.74 2.2 2.2 0 00-.25 1.05zm6.47-2.29c-.33 0-.63-.07-.89-.23a1.72 1.72 0 01-.62-.63 1.9 1.9 0 01-.22-.92 1.72 1.72 0 01.84-1.55c.26-.15.56-.23.9-.23a1.68 1.68 0 011.49.87c.15.26.23.57.23.91 0 .34-.08.64-.23.91a1.6 1.6 0 01-.62.64c-.26.16-.55.23-.88.23zm0-.36c.39 0 .7-.13.95-.4.25-.26.37-.6.37-1.02 0-.4-.12-.75-.37-1.01s-.56-.4-.95-.4c-.38 0-.7.14-.95.4-.24.26-.36.6-.36 1.01 0 .42.12.76.36 1.02.25.27.57.4.95.4zm9.7-2.8v-.29h2.1v.3l-.6.05c-.13.02-.2.05-.22.1-.02.04-.03.2-.03.44V750h-.54l-4-6.75v5.86c0 .25 0 .4.03.45.02.04.1.07.2.09l.61.06v.29h-2.1v-.29l.6-.06c.12-.02.2-.05.22-.09.02-.05.03-.2.03-.45v-5.7c0-.25-.01-.4-.03-.44-.03-.05-.1-.08-.21-.1l-.6-.05v-.3h1.9l3.48 5.9v-5c0-.26 0-.4-.03-.45-.02-.05-.1-.08-.2-.1l-.61-.05zm-54.33 13.93l1.9-1.22h.8v6.57c0 .25 0 .4.03.45.02.04.1.07.2.09l1.12.08v.29h-3.82v-.29l1.27-.08c.11-.02.18-.05.2-.1.03-.04.04-.2.04-.44v-6.02l-1.54.98-.2-.3zm7.22 2.59h-.3v-.36h.3c.61 0 1.04-.15 1.28-.46.25-.3.37-.7.37-1.19 0-.5-.1-.9-.32-1.16a1.1 1.1 0 00-.9-.4c-.5 0-.86.19-1.06.55-.19.36-.24.88-.17 1.55l-.96-.17a2.1 2.1 0 01.1-1.11c.14-.35.38-.63.73-.84.35-.22.8-.33 1.37-.33.54 0 .98.1 1.31.28.34.17.58.4.74.7.15.28.23.6.23.93 0 .52-.16.92-.47 1.22-.31.3-.76.5-1.35.61.63.1 1.1.3 1.43.64.34.33.51.77.51 1.34 0 .36-.09.69-.26.99-.17.3-.44.54-.8.73-.35.17-.8.26-1.37.26-.54 0-1-.13-1.4-.37-.4-.25-.69-.7-.86-1.35l.7-.2c.06.4.16.72.3.95.16.23.34.4.54.49.22.08.44.13.67.13.94 0 1.41-.55 1.41-1.63 0-.53-.13-.96-.4-1.3-.26-.34-.72-.5-1.37-.5zm8.73 1.78c0 .58-.2 1.06-.58 1.44-.4.37-.98.56-1.75.56-.55 0-1-.08-1.36-.25a1.9 1.9 0 01-.8-.68 1.64 1.64 0 01-.26-.9c0-.4.13-.77.4-1.1a3 3 0 011.18-.86 3.14 3.14 0 01-1.04-.77c-.26-.31-.39-.7-.39-1.17 0-.36.09-.69.26-.98.16-.3.4-.54.73-.71.33-.19.73-.28 1.2-.28s.87.08 1.2.24c.34.16.6.38.77.66.18.27.28.57.28.9 0 .37-.13.7-.37.97s-.62.53-1.13.74c.54.23.95.51 1.23.86.29.33.43.78.43 1.33zm-2.46-2.53l.46.2c.36-.2.6-.42.72-.67.14-.26.2-.56.2-.9 0-.48-.12-.84-.36-1.08s-.57-.37-.98-.37c-.39 0-.72.12-.98.34-.26.22-.38.55-.38.98 0 .37.1.67.34.9.22.21.55.41.98.6zm-1.38 2.68c0 .47.13.84.39 1.1.25.27.63.4 1.12.4.48 0 .86-.12 1.12-.35.26-.25.4-.6.4-1.04 0-.39-.11-.7-.32-.94-.2-.25-.55-.48-1.04-.69l-.65-.27a1.74 1.74 0 00-.77.74 2.2 2.2 0 00-.25 1.05zm5.76 1.85a.61.61 0 01-.45-.18.63.63 0 01-.17-.45.6.6 0 01.17-.44.61.61 0 01.45-.17c.19 0 .34.06.46.17.12.11.18.26.18.44a.61.61 0 01-.18.45.63.63 0 01-.46.18zm6.18-2.29h.28V763h-4.4v-.58c0-.5.08-.93.25-1.27.16-.33.38-.62.64-.86.28-.24.57-.46.87-.66.27-.17.52-.35.77-.53.25-.19.46-.41.62-.68.17-.27.25-.6.25-1 0-.56-.1-.98-.33-1.25-.21-.27-.51-.4-.9-.4-.5 0-.86.18-1.06.54-.19.36-.24.88-.17 1.55l-.96-.17a2.02 2.02 0 01.09-1.11 1.72 1.72 0 01.74-.84c.35-.22.8-.33 1.37-.33.54 0 .98.1 1.32.29.34.19.58.44.74.74.15.31.23.64.23 1 0 .4-.08.73-.23 1a2.05 2.05 0 01-.6.68 5.47 5.47 0 01-.82.47c-.3.13-.58.27-.86.42a3.98 3.98 0 00-.75.5 2.46 2.46 0 00-.55.69c-.14.26-.22.59-.25.97h2.84c.26 0 .41-.01.46-.04.06-.04.1-.12.13-.24l.28-1.07zm5.52-6.2h.29v1.75h-3.39l-.13 2.35c.21-.15.44-.26.7-.33.25-.07.51-.1.79-.1.72 0 1.3.22 1.72.66.43.44.64 1.03.64 1.77 0 .42-.08.81-.24 1.18a2 2 0 01-.78.88c-.35.22-.82.33-1.39.33-.5 0-.94-.12-1.32-.37-.37-.26-.64-.7-.81-1.35l.69-.2c.09.6.26 1.02.52 1.24.25.22.54.33.87.33.45 0 .8-.17 1.03-.5.24-.33.36-.85.36-1.54 0-.6-.1-1.1-.32-1.48-.2-.4-.57-.58-1.1-.58a2.27 2.27 0 00-.77.14 2.29 2.29 0 00-.78.47l-.22-.1.21-3.65h2.73c.26 0 .42-.01.47-.03.06-.03.1-.12.12-.26l.11-.61zm6.04 6.2h.28V763h-4.4v-.58c0-.5.08-.93.24-1.27.17-.33.39-.62.65-.86a7 7 0 01.87-.66c.27-.17.52-.35.77-.53a2.32 2.32 0 00.62-.68c.17-.27.25-.6.25-1 0-.56-.1-.98-.33-1.25-.21-.27-.51-.4-.9-.4-.5 0-.86.18-1.06.54-.19.36-.25.88-.17 1.55l-.96-.17a2.02 2.02 0 01.09-1.11c.14-.35.38-.63.73-.84.36-.22.82-.33 1.38-.33.54 0 .98.1 1.32.29.34.19.58.44.74.74.15.31.23.64.23 1 0 .4-.08.73-.23 1a2.04 2.04 0 01-.6.68 5.42 5.42 0 01-.82.47c-.3.13-.58.27-.86.42a4.01 4.01 0 00-.75.5 2.46 2.46 0 00-.55.69 2.5 2.5 0 00-.25.97h2.84c.25 0 .4-.01.46-.04.06-.04.1-.12.13-.24l.28-1.07zm6.3-1.25c0 1.2-.25 2.1-.73 2.68-.48.57-1.11.86-1.9.86-.5 0-.95-.13-1.34-.37-.38-.25-.65-.7-.82-1.35l.68-.2c.06.4.16.72.3.95.14.23.32.4.51.49a1.6 1.6 0 001.42-.07c.25-.14.45-.4.6-.76.15-.37.23-.9.23-1.58v-.87a1.97 1.97 0 01-.75.58c-.28.13-.58.19-.9.19a2.32 2.32 0 01-1.15-.28 1.98 1.98 0 01-.76-.76 2.42 2.42 0 01-.26-1.15v-.29c0-.45.1-.84.3-1.17.2-.34.47-.6.82-.79.35-.18.76-.27 1.23-.27.81 0 1.43.3 1.86.88.44.59.65 1.45.65 2.59v.69zm-3.85-1.67c0 .55.11 1 .32 1.33.21.32.54.48 1 .48.26 0 .53-.07.8-.2.27-.15.5-.39.68-.72v-.56c0-.63-.06-1.12-.18-1.48a1.34 1.34 0 00-.5-.76c-.21-.15-.49-.23-.8-.23-.4 0-.72.14-.96.42-.24.27-.36.74-.36 1.42v.3zm6.48 1.07c-.33 0-.63-.07-.9-.23a1.72 1.72 0 01-.61-.64 1.89 1.89 0 01-.22-.9 1.72 1.72 0 01.84-1.55c.26-.16.56-.24.89-.24a1.68 1.68 0 011.5.87c.15.26.22.57.22.91 0 .34-.07.64-.23.91a1.62 1.62 0 01-.61.64c-.26.16-.55.23-.88.23zm0-.36c.38 0 .7-.13.94-.4.25-.26.38-.6.38-1.02 0-.4-.13-.75-.38-1.01-.24-.26-.56-.4-.94-.4-.39 0-.7.14-.95.4-.24.26-.36.6-.36 1.01 0 .42.12.76.36 1.02.25.27.56.4.95.4zm11.45 2.6h.29V763h-5.27v-.29l.6-.06c.12-.02.19-.05.21-.09.02-.04.03-.2.03-.45v-5.7c0-.26 0-.4-.03-.45-.02-.04-.1-.07-.2-.09l-.61-.05v-.3h5.12v1.8H665l-.32-1.16a.52.52 0 00-.08-.19c-.02-.04-.07-.07-.14-.08a2.14 2.14 0 00-.38-.02h-2.13v3.18h1.47l.38-.01c.07-.01.12-.04.14-.08a.66.66 0 00.08-.2l.2-.82h.3v2.57h-.3l-.2-.82a.52.52 0 00-.08-.19c-.02-.04-.07-.07-.14-.08a2.14 2.14 0 00-.38-.02h-1.47v3.25h2.27l.37-.01c.07-.02.12-.04.14-.08a.66.66 0 00.08-.2l.32-1.15zM642 708h4v4h-4zm12 0h4v4h-4z">
                    </path>
                    <path fill="#fff"
                        d="M642 708h4v4h-4zm0 0h40v-4h-40zm4-4h32v-4h-32zm4-4h24v-4h-24zm4-4h16v-4h-16zm0 12h4v4h-4zm12 0h4v4h-4z">
                    </path>
                    <path fill="#fff"
                        d="M660 688h4v40h-4zm-4 40h4v4h-4zm-4-4h4v4h-4zm26-16h4v4h-4zm-69 87.97h-4.8v-.99h4.8v.99zm-58 5.8h.99v.98H551v-.98zm26.09-13.5h1.9v-1.98h-.89v-.93h.9v-1.98h1v2.9h.99v.98h-.97v2.9h2.87v-2.9h.99-.01v.99h1.92v-.01.93h-1.88v1.98h.9l-.01-.01v.92h9.68v1h-9.66v.98h-1.91v-.95h-1v.95H581v-.97h-1v-.99h-.98v.01-.92h-.93v-1.98h-1v-.93z">
                    </path>
                    <path fill="#fff"
                        d="M566.5 794.98v-1.9h4.79v-.98h2.9v.95h1.92v-1.88h.99v.92h1.93v2.88h-.93v.98h-.99v-1.87h-.99v.88h-.92v-.9h-1.99v-.97h-.9v.96h.9v.92h.97v1h-1.9V795h-.96v.96h.97v.98h-2.9v.93h-1.96v-.91h.96v-.98h.99v-1h.91v-.9h-.9v.9h-2.9zm9.63 9.7v-2.9h.96v-4.82h1.9v-.99h1V795h1v2.88h-1v2.9h.01-.98v-.91h-.92v9.6h-.99v-4.8h-.99v.01h.01z">
                    </path>
                    <path fill="#fff"
                        d="M570.32 807.57v-2.9h.97v-1.9h1v-1.98h.91v-1.91h.98v-1h1V796h.91v2.87h-.9v1.92h-.98v1.96h-1v1.92h-.92v.98h-.98v1.92h-1v.01zm17.4-10.63h-.93v-.96h-.98v-1h-.98v-.94h-.01 6.76v.92h-2.87v1h-1v.98h.02zm-9.65 22.21h-.96v-8.66h.96v8.67zm9.65-28.98v-.97h6.76v.96h-6.77zm-17.41 17.4v1.9h-.92v1.98h-.98v.91h-.98v-1.88h.96v-1.92h.98v-.99h.95-.01zm2-21.28l-.02-3.47v-.36h-.97v-.98h1.89v2.88h1v.98h-.99v.95h-.93.01zm25.09 20.3h.98v.97h.93v.98h.97v.93h-1.88v-.9h-1.98v-1h-.01 1v-1l-.01.02zm-31.9 12.58v-4.81h.99v-.01 4.81h-1l.01.01zm15.5-14.52h-1v-3.87h1-.02l.01 3.88.01-.01zm-.02-28.99v3.87h-.96v-3.86h.97zm2.91 30.92h-1v-3.82h.99v3.82h.01zm-1.97-34.8v-3.82h.98v-.01 3.82h-.99v.01z">
                    </path>
                    <path fill="#fff"
                        d="M581.92 808.55H581v-3.9h.9v3.9h.02zm13.58-13.6v-.88h3.8v.89h-3.8zm-21.31-22.17h.97v2.86h-.97v-2.87.01zm-7.7 22.2v.98h-2.9v-.98h2.9zm-1.97 3.89v-.98h.97v-.91h.98v1.88h-1.96v.01zm19.37 15.48h-.97v-2.88h.96v2.89l.01-.01zm-10.68-44.48h.98v2.91h-.97v-2.92h-.01zm14.5 20.29v.98h-2.91v-.97h2.92v-.01zm-10.6-7.71h-.99v-2.9h.97v2.9h.01zm-7.73 6.73h2.88v.97h-2.87v-.98.01zm1.94 21.3h.95v-.98h.93v1.93h-1.88v-.96zm11.58-14.5h1.9v.98l.02-.01h-.93v.91h-.99v-1.9.01zm12.6-7.72h2.86v.9h-2.86v-.9zm-14.52 9.62h.93v2.9h-.93v-2.9z">
                    </path>
                    <path fill="#fff"
                        d="M569.4 789.17h-2.9v-.9h2.88v.91h.01zm-.02-18.32h.93v2.9h-.92v-2.9zm11.6 12.53h.93l-.01-.02v2.91h-.92l.01.01v-2.9zm-20.28 6.77h-1.98v-.97h1.97v.98l.01-.01zm8.7-19.3h-.98v-1.95h.96v1.95h.01zm13.5-2.9V766h.97v1.95h-.98.01zm4.82 5.8v-1.97h.98v1.97h-.99zm-5.81 27.03h.98v1.99-.01h-.97v-1.98h-.01zm10.67-17.4v.98h-1.97v-.98h1.98zm-29 12.58v.99h-1.97v-.98h1.98v-.01zm23.19-21.3v1.98h-.97v.01-1.98h.98-.01zm-30.95 25.2v-.99h1.97v.98h-1.98zm44.48 4.8h-1.92v-.97h1.91v.98h.01zm-4.81 7.72h-.98v-1.92l-.01.01h.98v1.92-.01zm-9.68-11.62h-.97v-1.89h.96v1.9h.01zm-21.3-1.9v1h-1.9v-.99h1.9z">
                    </path>
                    <path fill="#fff"
                        d="M562.6 791.15h-1.9v-1h-.01 1.9v1h.01zm23.2-14.5v1.9h-.97v-1.9h.98-.01zm-28.99 5.79h-1.9v-.95h1.9v.95zm31.9 22.22h-.99v-1.91h.98v1.92zm-20.32-28h1v1.9h-1v-1.9zm14.5 4.8v1.9h-1l.02.01v-1.91h.98zm23.2 26.12v.95h-1.88v-.94h1.88zm-40.72-24.42h.99v1.91h-.98v-1.92.01zm32.04 9.88v-.94h1.89v.94h-1.9zm-20.31-10.58h.97v1.89h-.97v-1.9zm-25.11 19.31v-1h1.9v1h-1.9zm29.92 6.79h.97v1.89h-.96v-1.9h-.01zm-17.4-21.3h-1.9v-.98h-.01 1.9v.99h.02zm-6.73-3.88h1.91v.99h.01-1.9v-1l-.02.01zm32.84-14.5v-1.91h.98v1.9h-.99v.01zm-30.92 43.5v-1.9h.97v1.9h-.97zm45.4-34.8v.97h-1.88v-.97h1.9-.01zm-51.2 29v.97H552v-.96h1.9v-.01zm5.8-22.21h1.92v.97h-1.92v-.98zm10.61-10.62h.97v1.9h-.96v-1.9h-.01zm14.5 12.53v-1.9h.97v1.9h-.97zm-16.41 15.48v1.9h-.97v-1.89h.98-.01zm5.8 5.81v-1.91h.99v-.01 1.91h-1l.01.01zm11.61 10.6h-1v-1.9l-.01.01h1v1.9l.01-.01zm1.89-37.7v1.98h-.92.01v-1.98h.92-.01zm-5.79-8.7v1.96h-.9v-1.95h.9zm1.97 34.81h.91v1.95h-.9v-1.95zm11.6 0h-1.95v-.92h1.96v-.01.94-.01z">
                    </path>
                    <path fill="#fff"
                        d="M583.88 814.36h.92v1.92h-.91v-1.93zm-22.27-17.41v.9h-1.9v-.9h1.9zm39.66 8.72h1.91v.89h-1.9v-.9zm-38.68-14.52h1.92v.93h-1.9v-.93h-.02zm-6.78 8.7v.92h-1.93.01v-.91h1.93v-.01zm4.9.94v-.93h1.9v.92h-1.92l.01.01zm26.07 18.38h.91v1.9h-.9v-1.9zm-29.98-15.49v-.93h1.9v-.01.93h-1.9v.01zm35.79-20.3v-.9h1.89v.9h-1.9z">
                    </path>
                    <path fill="#fff"
                        d="M559.7 801.77v-.98h1v.97h-1v.01zm5.8 17.4v.96h-.97v-.96h.98-.01zm8.7-29.99h.97v.97h-.96v-.97h-.01zm12.58-1.92v.98h-1 .01v-.97h1zm-10.68.02h.99v.99-.01h-.98v-.99.01h-.01zm-11.6-.01h.98v.96h-.96v-.97h-.01zm22.3 31.9h-.99v-1h.97v1h.01zm10.6-3.88h.97v.96h-.96v-.97h-.01zm-32.9-23.2h.98v.96h-.96v-.98l-.01.01zm-4.8 20.29v.98h-.99v.01-.99h1-.01zm43.51-.94h-.99v-.98.01h.99v.98-.01zm-37.83-28.29h-.97v-.96h.96v.97h.01zm5.92 3.13l1 .01v.96h-1v-.97zm23.2 24.18h-.97v-.96h.97v.97zm-27.09-34.79h.98v1-.01h-.97v-1 .01zm24.18 31.91h.98v.95h-.98v-.96.01zm-17.4-.02v.97h-.96v-.96h.97zm17.43-30.9v-.98h.94v.98h-.95zm-29.02 31.9v-.97h.97v.96h-.98.01zm20.3-12.6h-.97V795h.97v.97zm-14.5-12.56h1v.96l.01-.01h-1v-.96h-.01zm22.2 23.2h.99v.98h-.98v-1 .02h-.01zm9.7-1.93h.97v1l.01-.01h-.98v-1 .01zm-11.6 0h.98v.99-.01h-.98v-.99.01zm-17.4-27.09h.97v.97h-.96v-.97h-.01zm-4.83 28.07h-.95v-.96h.95v.96zm29.03-1h-.98v-.95h.97v.96l.01-.01zm-38.7-.97v.98h-.99v-.98h1-.01zm7.7-25.1h1v.97h-1v-.98.01zm6.82 20.3v-.98h.94v.97h-.95v.01zm26.08 3.87h-.96v-.96h.96v.97-.01zm-8.7-23.2v-.98h.99v.98h-1 .01zm-2.9 19.32v-.98h-.01.99v.98h-.99.01zm3.89 0h-.99v-1 .02h.99v-.01.99zm-30 2.9v.97h-1 .02v-.97h1-.01zm30.92-3.88h.99v.98h-.99v-1 .02zm6.79-17.41v.98h-.99v-.98h1-.01zm-13.52 0v.97h-1l.01.01v-.97h1v-.01z">
                    </path>
                    <path fill="#fff"
                        d="M570.33 799.87v-1h.99-.01v.99h-.99.01zm9.7-19.38h.94v.95h-.95v-.95zm14.47 20.3h.97v.96h-.96v-.97h-.01zm-2.9-1.92h.97v.98h-.97v-.99.01zm.99 2.9h-1v-.98h.99v.98zm-3.9-.97h1v.96l.01-.01h-1v-.96h-.01zm-1.89.95h-.99v-.99.01h.98v.99-.01h.01zm-18.4.02v-.99h.99v.98h-1l.01.01zm23.2-34.8V766h.97v.96h-.98l.01.01zm-17.4 22.2h-.96v-.9h.96v.91zm-7.71 25.19v-.97h.9v.96h-.9zm20.3-27.09v-.97h.9v.96h-.91v.01h.01zm.91 12.6h.99v.93-.01h-.98v-.93h-.01zm1-20.32v.92h-1v-.92h1zm-23.2 0h.97v.91h-.97v-.91zm36.7-.01h-.9v-.96h.9v.96zm-29.9-10.68h-.98v-.89h.97v.9h.01zm25.1 11.62v-.9h.97v.9h-.98.01zm2.88-.01h-.95v-.9h.95v.9zm-9.66 19.38h-.93v-.99.01h.93-.01v.99-.01z">
                    </path>
                    <path fill="#fff"
                        d="M586.78 798.87h.92v1-.01h-.91v-1 .01zm-19.36-16.42h-.91v-.97h.9v.98-.01zm20.3 20.3h-.92v-1h.91v1zm2.9 0h-.92v-1l-.01.01h.92v1-.01zm1.96-.98h.91v.96h-.9v-.97.01zm3.83-20.31v.97h-.9v-.96h.91v-.01zm-20.3-1.91h-.9v-.97h.9v.98-.01zm18.4 21.23h-.97v-.9h.96v.9zm-36.72-1.9v-.98h.9v.96h-.9v.01z">
                    </path>
                    <path fill="#fff"
                        d="M590.6 802.76h.98v.9h-.96v-.91h-.01zm6.8 0h.97v.93h.01-.98v-.94zm-12.59-16.49v.98h-.94v.01-.98h.95-.01zm3.9 11.6h-.98v-.93h-.01.98v.95-.01zm.98-19.3v-.99h.93-.01v.98h-.93v.01zm-33.88 26.1v.99h-.92.01v-.99h.92zm29-7.71h.98v.93h-.97v-.94h-.01zm-9.62 8.7v-.98h.94v.97h-.95.01zm-17.4-22.28h-.98v-.95.01h.97v.94h.01zm9.62-.93h.98v.94h-.97v-.94h-.01zm28.08 23.2v-1 .01h.92v1-.01h-.93zM580 783.39v-.9h.98v.9h.01-1 .01z">
                    </path>
                    <path fill="#fff"
                        d="M553.9 806.59v-.92h1v-.01.92h-1zm9.68-29h.92v1-.02h-.91v-1 .01zm33.82 37.69h-.96v-.9h.96v.9zm-5.8-15.43l-.01.95v-.01h-.97v-.94h.98zm4.8 5.8h1v.94-.01h-1 .02v-.93h-.01zm8.72-28.07v-.9h.96v.9h-.97zm-10.61-.02v-.89h.96v.9h-.96zm-3.9.02v-.92h1v.92h-1zm-3.83 4.87v.9h-.96v-.9h.97z">
                    </path>
                    <path fill="#fff"
                        d="M596.42 807.56h-.93v-.98h.93-.01v.99zm-26.1-22.22h-.92v-1 .02h.92v.98zm.98-7.76h-.97v-.91h.97v.91zm19.31 6.78v.97h-.9v-.96h.91-.01zm23.89 21.34v.99h1.97v-.98h-1.98.01zm-12.53-5.8v.97h1.9v-.96h-1.9z">
                    </path>
                    <path fill="#fff"
                        d="M614.5 805.71v-.91h-1.9v.9h1.9v.01zm-4.81-2.9v.98h.98v-.98h-1 .02zm-4.8-.94h.88v-.96h-.89v.96z">
                    </path>
                    <path fill="#fff"
                        d="M609.68 802.81v-.91h-.96v.9h.97l-.01.01zm-2.88-.01h.95v-.9h-.95v.9zm3.87.99v.97h.9v-.96h-.9v-.01zm-8.7-3.88V799H601v.9h.97v.01zm14.5 6.78v.97h.9v-.96h-.9v-.01zm19.5 8.3v-.98H634V814v.98h1.98v.01zm-7.57-3.24v-.97h-1.89v.97h1.9zM634 815v.91h1.9v-.9H634V815zm-13.31-6.15v-.98h-.99.01v.98h.99-.01zm4.8.94h-.89v.96h.9v-.96zm-4.79-.94v.9h.96v-.9h-.97zm2.87.01h-.94v.9h.94v-.9zm-3.87-.99v-.97h-.9v.96h.91v.01zm8.71 3.88v.9h.96v-.9h-.97.01zm5.5 2.22V813H633v.96h.91v.01zm-71.3-27.7h-.98v-.93h-.01.98v.94zm8.7 0h-.98v-.93h-.01.97v.94h.01zm30.92 8.69v-.89h.96v.89h-.96zm-27.04-8.68h-.98v-.94h.97v.94zm-12.6 22.27v.91h-.96v-.9h.98l-.01-.01zm18.4-32.88v-.97h.9v.96h-.9zm-13.57 0h-.91v-.97h.9v.97zm27.06 19.3h-.94v-.9h.94v.9zm7.74 15.5h-.91v-.97h.9v.97zm-29-40.61h-.92v-1 .01h.9v1l.02-.01zm17.4-.99v.97h-.91v-.96h.9zm-35.76 26.1h-.94v-.9h.94v.9zm33.84-23.19v-.9h.97v.9h-.97zm15.49 40.6h-.98v-.94h.97v.95-.01zm-29-26.1h.91v1h.01-.92v-1zm20.3 26.1h.9v.97h-.9v-.97zm8.7 0h.9v.97h-.9v-.97zm-45.48.98v.97h-.9v-.96h.9zm10.67-34.8h.91v.97h-.9v-.97zm20.3 27.1h.92v.93h-.91v-.94zm0-7.78v-.9h.93v.9h-.93zm-20.3 2.9v-.92h.95v.92h-.95zm14.51-20.3v-.9h.9v.9h-.91.01zm-25.17 8.7h-.91v-.91h.9v.91zm28.99-15.44v.92h-.94v.01-.92h.95-.01zm-7.71 9.64h1v2.9h-1v-2.9zm-7.7 12.58h-.98V795h.96v.97h.01zm.92-1.91h-.91v-.96h.9v.97-.01zm-3.83.93v-.9h.9v.9h-.9zm11.6 2.9v2.9h-1v-2.9h1zm15.42 9.7v-1h1v1h-1z">
                    </path>
                    <path fill="#fff" d="M596.42 806.59h-.94v-.94h.94v.94zm-6.74-8.71h.94v.99h-.94v-1z"></path>
                    <path fill="#fff"
                        d="M591.6 799.86h-1v-1h1v1zm-5.62-670.78c-.58 0-.91-.27-1.02-.8a2.38 2.38 0 01-.84.64 2.42 2.42 0 01-.91.19c-.52 0-.9-.14-1.14-.43a1.55 1.55 0 01-.36-1.03c0-.44.14-.78.44-1.03s.82-.38 1.55-.38h1.24v-.9c0-.58-.1-.98-.3-1.2-.2-.23-.47-.34-.82-.34-.22 0-.42.04-.6.13a.8.8 0 00-.38.48 2.4 2.4 0 00-.02 1l-.87-.13a1.73 1.73 0 01.13-.92c.13-.28.35-.5.64-.66.3-.17.67-.25 1.12-.25.54 0 .95.09 1.23.27.3.18.49.4.6.7.12.28.18.6.18.93v2.47c0 .38.04.61.12.7.08.1.18.15.28.15a.57.57 0 00.21-.04l.24-.17.2.28c-.1.1-.24.17-.4.24a1.28 1.28 0 01-.52.1zm-2.47-.43c.2 0 .43-.06.66-.17.24-.11.5-.34.77-.69v-1.2h-1.12c-.41 0-.71.09-.9.25-.19.17-.28.42-.28.76 0 .33.07.59.21.77.15.19.37.28.66.28zm-481.77-.94v.29h-2.6v-.29l.61-.06c.12-.02.19-.05.21-.09.02-.04.03-.2.03-.45v-2.74c0-.54-.08-.92-.26-1.14a.9.9 0 00-.75-.35c-.25 0-.52.08-.81.23-.3.14-.57.43-.83.86v3.14c0 .26.01.4.04.45.02.04.09.07.2.09l.61.06v.29h-2.6v-.29l.6-.06c.13-.02.2-.05.22-.09.02-.04.03-.2.03-.45v-6.36c0-.26 0-.4-.03-.45-.02-.04-.1-.07-.21-.09l-.6-.05v-.3h1.74v3.53c.26-.33.55-.57.88-.71.33-.16.66-.23.98-.23.54 0 .96.16 1.26.5.29.33.44.8.44 1.4v2.76c0 .26 0 .4.03.45.02.04.1.07.2.09l.61.06zm-2.66 639.45v-.3h1.75v7.25c0 .26.01.4.04.45.02.04.09.07.2.09l.61.06v.29h-2.6v-.29l.61-.06c.12-.02.19-.05.21-.09.02-.04.03-.2.03-.45v-6.36c0-.26 0-.4-.03-.45-.02-.04-.1-.07-.21-.09l-.6-.05z">
                    </path>
                </svg>